<svg xmlns="http://www.w3.org/2000/svg" viewBox="0 0 252 99" width="252" height="99">
	<style>
		tspan { white-space:pre }
		.shp0 { fill: #694a25 } 
		.shp1 { opacity: 0.2;mix-blend-mode: overlay;fill: #000000 } 
		.shp2 { fill: #6f553c } 
		.shp3 { fill: #836543 } 
		.shp4 { fill: #a27e4f } 
	</style>
	<g id="Navigation">
		<g id="btn_frame Kopie">
			<path id="Rounded Rectangle 1" fill-rule="evenodd" class="shp0" d="M25.16 4.75L227 4.75C238.05 4.75 247 13.7 247 24.75L247 68.37C247 79.42 238.05 88.37 227 88.37L25.16 88.37C14.11 88.37 5.16 79.42 5.16 68.37L5.16 24.75C5.16 13.7 14.11 4.75 25.16 4.75ZM30.19 4.77L37.96 6.17L46.31 4.77L30.19 4.77Z" />
			<path id="Color Fill 613" fill-rule="evenodd" class="shp1" d="M242.51 67.3L247.88 86.97L238.03 91.19L4.21 89.08L9.58 67.3L242.51 67.3Z" />
			<path id="Rounded Rectangle 2" fill-rule="evenodd" class="shp2" d="M24.69 4.75L227.41 4.75C236.24 4.75 243.41 11.91 243.41 20.75L243.41 64.66C243.41 73.49 236.24 80.66 227.41 80.66L24.69 80.66C15.85 80.66 8.69 73.49 8.69 64.66L8.69 20.75C8.69 11.91 15.85 4.75 24.69 4.75ZM7.79 67.3L24.81 82.05" />
			<path id="Shape 305" fill-rule="evenodd" class="shp3" d="M8.69 4.75L243.41 4.75L243.41 67.72L252.94 61.99L243.41 73.46L243.41 80.66L217.91 80.66L215.95 81.04L216.83 80.66L8.69 80.66L8.69 4.75ZM12.28 16.56L12.28 64.2L20.37 77.8C20.67 77.83 20.97 77.84 21.28 77.84L187.57 77.84L195.26 75.73L201.59 77.84L223.34 77.84L234.81 72.89L239.75 69.92C239.79 69.57 239.81 69.21 239.81 68.84L239.81 16.56C239.81 11.59 235.78 7.56 230.81 7.56L21.28 7.56C16.31 7.56 12.28 11.59 12.28 16.56Z" />
			<path id="Shape 306" fill-rule="evenodd" class="shp4" d="M12.27 4.06L243.4 4.06L243.4 14.6L238.99 16.33L238.92 16.71L238.49 16.53L236.54 17.29C236.02 16.48 235.45 15.71 234.83 14.98L227.28 11.79L223.14 8.01C221.74 7.72 220.3 7.56 218.81 7.56L85.35 7.56L75.88 9.68L63.33 7.58L63.83 7.56L33.28 7.56C31.69 7.56 30.15 7.74 28.66 8.07L23.02 12.49L18.12 14.03C17.73 14.44 17.35 14.87 16.99 15.31L16.75 15.31L14.65 15.12L14.06 15.31L13.9 15.06L8.69 14.6L12.27 4.06Z" />
		</g>
	</g>
</svg>